# xmcd
#
# Track frame offsets: 
#        150
#        19222
#        31357
#        56142
#        69567
#        83442
#        92560
#        110300
#        123992
#        140520
#        161677
#
# Disc length: 2601 seconds
#
# Revision: 18
# Processed by: cddbd v1.5.2PL0 Copyright (c) Steve Scherf et al.
# Submitted via: ExactAudioCopy v1.0b3
#
DISCID=8b0a270b
DTITLE=Crosby, Stills, Nash and Young - S O   F A R     1 9 7 4
DYEAR=1974
DGENRE=Folk Rock
TTITLE0=Déjà vu  1970
TTITLE1=Crosby, Stills and Nash - Helplessly Hoping  1969
TTITLE2=Crosby, Stills and Nash - Wooden Ships  1969
TTITLE3=Teach Your Children  1969
TTITLE4=Ohio  1970
TTITLE5=Find The Cost Of Freedom  1970
TTITLE6=Woodstock  1970
TTITLE7=Our House  1969
TTITLE8=Helpless  1970
TTITLE9=Crosby, Stills and Nash - Guinnevere  1969
TTITLE10=Crosby, Stills and Nash - Suite: Judy Blue Eyes  1969
EXTD=YEAR: 1974
EXTT0=
EXTT1=
EXTT2=
EXTT3=
EXTT4=
EXTT5=
EXTT6=
EXTT7=
EXTT8=
EXTT9=
EXTT10=
PLAYORDER=
